<svg width="96" height="97" viewBox="0 0 96 97" fill="none" xmlns="http://www.w3.org/2000/svg">
<g opacity="0.91">
<circle cx="47.6358" cy="48.6144" r="47.6358" fill="#EFEFF3"/>
<path d="M58.4452 64.5364L58.4453 64.5365C59.699 65.8226 61.7377 65.8231 62.9904 64.5364C63.6143 63.8962 63.9243 63.0594 63.9243 62.2269C63.9243 61.3944 63.6143 60.5576 62.9904 59.9174L37.8155 34.0799L37.8154 34.0798C36.5617 32.7937 34.5229 32.7932 33.2702 34.08C32.0255 35.358 32.0254 37.4218 33.2703 38.6994L33.7054 38.2755L33.2703 38.6994L58.4452 64.5364Z" fill="#979797" stroke="#979797" stroke-width="1.21736"/>
<path d="M37.8179 64.5364L37.8178 64.5365C36.5642 65.8226 34.5255 65.8231 33.2727 64.5364C32.6489 63.8962 32.3389 63.0594 32.3389 62.2269C32.3389 61.3944 32.6489 60.5576 33.2727 59.9174L58.4477 34.0799L58.4478 34.0798C59.7016 32.7937 61.7404 32.7932 62.9931 34.0801C64.2377 35.3581 64.2378 37.4218 62.9929 38.6994L62.557 38.2747L62.9929 38.6994L37.8179 64.5364Z" fill="#979797" stroke="#979797" stroke-width="1.21736"/>
</g>
</svg>
