<svg width="66" height="82" viewBox="0 0 66 82" fill="none" xmlns="http://www.w3.org/2000/svg">
<path d="M23.8739 50.262L20.713 50.136C19.6166 50.0923 18.7187 49.257 18.6964 48.2561L17.7021 3.13369C17.6728 1.81168 18.6967 0.751228 19.979 0.78445L24.9285 0.914404C26.2152 0.948199 27.2371 2.06542 27.1991 3.38924L25.9077 48.5401C25.8794 49.5408 24.9729 50.3055 23.8739 50.262Z" fill="#CDCDCD"/>
<path d="M20.291 58.0443L17.0311 58.2062C15.8999 58.2623 14.8894 57.4425 14.7621 56.3602L9.0257 7.60267C8.85794 6.1751 9.79986 4.93813 11.121 4.86306L16.2171 4.57193C17.5402 4.49686 18.7048 5.61438 18.804 7.04783L22.1977 55.9888C22.2734 57.075 21.4228 57.9882 20.291 58.0443V58.0443Z" fill="#C0C0C0"/>
<path d="M15.4161 61.4539L12.2202 61.8221C11.1125 61.95 10.0485 61.2111 9.83116 60.1582L0.0568038 12.8557C-0.22845 11.4738 0.588799 10.197 1.87669 10.0266L6.84872 9.36867C8.14183 9.19699 9.38076 10.2048 9.60074 11.5998L17.1198 59.3135C17.2869 60.3749 16.5271 61.3253 15.4161 61.4539Z" fill="#CDCDCD"/>
<path d="M34.2332 53.291L37.3834 53.5996C38.4761 53.7067 39.4754 52.9452 39.6283 51.8851L46.5107 4.09405C46.7118 2.69322 45.8353 1.42341 44.5597 1.2798L39.6358 0.724262C38.3558 0.580023 37.1967 1.62371 37.0614 3.03524L32.442 51.1772C32.3393 52.2442 33.1381 53.1833 34.2332 53.291V53.291Z" fill="#CDCDCD"/>
<path d="M44.78 58.0443L48.0406 58.2062C49.1711 58.2623 50.1816 57.4425 50.3089 56.3602L56.0453 7.60267C56.2131 6.1751 55.2711 4.93813 53.95 4.86306L48.8539 4.57193C47.5308 4.49686 46.3662 5.61438 46.267 7.04783L42.8733 55.9888C42.7976 57.075 43.6482 57.9882 44.78 58.0443V58.0443Z" fill="#C0C0C0"/>
<path d="M49.6533 61.4539L52.8492 61.8221C53.9569 61.95 55.0209 61.2111 55.2383 60.1582L65.0126 12.8557C65.2979 11.4738 64.4806 10.197 63.1928 10.0266L58.2207 9.36867C56.9276 9.19699 55.6887 10.2048 55.4694 11.5998L47.9503 59.3135C47.7832 60.3749 48.543 61.3253 49.6533 61.4539V61.4539Z" fill="#CDCDCD"/>
<path d="M33.6549 59.6235H30.3983C29.2678 59.6235 28.3369 58.7632 28.3095 57.6861L27.0693 9.19494C27.0327 7.77585 28.0837 6.60742 29.4055 6.60742H34.4977C35.8195 6.60742 36.8737 7.77585 36.8417 9.19494L35.7386 57.6861C35.7144 58.7632 34.7862 59.6235 33.6549 59.6235Z" fill="#C0C0C0"/>
<path d="M33.7947 64.085L30.8031 65.3122C29.7653 65.7385 28.5648 65.3102 28.1073 64.3474L7.51803 21.0215C6.91619 19.7551 7.40837 18.2995 8.61662 17.7943L13.2753 15.8465C14.4855 15.3406 15.9196 15.992 16.4601 17.2864L34.9305 61.5465C35.3411 62.5302 34.8339 63.6588 33.7947 64.085V64.085Z" fill="#CDCDCD"/>
<path d="M33.8248 71.8214L30.595 71.9703C29.4742 72.0218 28.4879 71.215 28.3808 70.1543L23.5713 22.4275C23.431 21.0319 24.384 19.8269 25.6915 19.7577L30.7347 19.4914C32.0441 19.4222 33.176 20.5182 33.2491 21.919L35.7491 69.8129C35.8046 70.8776 34.9469 71.7699 33.8248 71.8214Z" fill="#C0C0C0"/>
<path d="M47.7602 63.8172L50.898 63.9581C51.9862 64.0065 52.9627 63.244 53.09 62.2414L58.782 17.2908C58.9478 15.9807 58.0503 14.8508 56.7859 14.7862L51.9072 14.5361C50.6402 14.4709 49.5207 15.499 49.4189 16.8136L45.9338 61.9183C45.8562 62.9248 46.6701 63.7682 47.7602 63.8172V63.8172Z" fill="#C0C0C0"/>
<path d="M35.6841 71.1007L39.0927 71.6386C40.2755 71.8246 41.3891 71.0257 41.5915 69.8448L49.5969 23.0854C49.8025 21.8824 48.9852 20.7433 47.7796 20.5534L43.134 19.821C41.9283 19.631 40.8004 20.4633 40.6261 21.6715L33.8577 68.6255C33.6866 69.8116 34.5006 70.9141 35.6841 71.1007V71.1007Z" fill="#CDCDCD"/>
<path d="M47.9125 28.9229C47.2471 28.9229 46.6561 29.3189 46.4179 29.9128C44.2598 35.2905 38.8133 39.1086 32.4326 39.1086C26.0519 39.1086 20.6054 35.2905 18.4473 29.9128C18.2091 29.3189 17.6182 28.9229 16.9534 28.9229H2.29174C1.30089 28.9229 0.548828 29.777 0.716943 30.7115L9.69833 80.5526C9.83078 81.2861 10.4956 81.8216 11.2731 81.8216H53.5921C54.3696 81.8216 55.0344 81.2861 55.1669 80.5526L64.1483 30.7115C64.3164 29.777 63.5643 28.9229 62.5735 28.9229H47.9125Z" fill="#ACACAC"/>
<path d="M62.5357 28.9229H52.2109C53.2264 28.9229 53.9966 29.777 53.8238 30.7115L44.626 80.5526C44.4904 81.2861 43.8095 81.8216 43.0132 81.8216H53.3373C54.1336 81.8216 54.8145 81.2861 54.9501 80.5526L64.1485 30.7115C64.3207 29.777 63.5505 28.9229 62.5357 28.9229Z" fill="#9D9D9D"/>
<path d="M60.7823 55.3125H4.2876L6.0755 65.6835H58.9944L60.7823 55.3125Z" fill="#E8E8E8"/>
<path d="M60.7826 55.3125H50.4495L48.6616 65.6835H58.9947L60.7826 55.3125Z" fill="#E1E1E1"/>
<path d="M45.9925 60.8068C45.9925 68.2391 39.9676 74.264 32.5353 74.264C25.1031 74.264 19.0781 68.2391 19.0781 60.8068C19.0781 53.3745 25.1031 47.3496 32.5353 47.3496C39.9676 47.3496 45.9925 53.3745 45.9925 60.8068Z" fill="#B3B3B3"/>
<path d="M38.6139 48.8008C38.9827 50.0286 39.1838 51.3296 39.1838 52.6781C39.1838 60.1104 33.1582 66.1353 25.7266 66.1353C23.5379 66.1353 21.4739 65.6092 19.6475 64.683C21.3126 70.2242 26.4511 74.2628 32.5348 74.2628C39.9671 74.2628 45.992 68.2379 45.992 60.8056C45.992 55.5614 42.9907 51.0215 38.6139 48.8008Z" fill="#9D9D9D"/>
</svg>
