<svg width="96" height="64" viewBox="0 0 96 64" fill="none" xmlns="http://www.w3.org/2000/svg">
<path d="M87.2158 11.8775C74.625 -8.80852 55.6579 5.58299 55.6579 5.58299C54.4278 6.51268 52.1596 7.27706 50.6184 7.28061L45.538 7.28417C43.9968 7.28594 41.7286 6.52157 40.5002 5.59188C40.5002 5.59188 21.5314 -8.80319 8.93878 11.8828C-3.65024 32.5618 1.42305 55.0823 1.42305 55.0823C2.31186 60.5964 5.24136 64.2761 10.7697 63.8139C16.2821 63.3535 28.2472 48.9637 28.2472 48.9637C29.2355 47.7781 31.3064 46.8093 32.8441 46.8093L63.3016 46.8039C64.841 46.8039 66.9102 47.7727 67.8967 48.9584C67.8967 48.9584 79.8636 63.3481 85.3848 63.8085C90.9061 64.2707 93.8427 60.5875 94.7262 55.0769C94.7244 55.0769 99.8066 32.56 87.2158 11.8775ZM36.6304 28.715H30.0994V35.0095C30.0994 35.0095 28.7165 36.0654 26.5762 36.0388C24.4395 36.0068 23.4725 34.8869 23.4725 34.8869V28.7168H17.3042C17.3042 28.7168 16.5345 27.9275 16.3283 25.8495C16.1257 23.7715 17.1798 22.0916 17.1798 22.0916H23.7125V15.5607C23.7125 15.5607 25.0564 14.8408 26.9886 14.8959C28.9227 14.9563 30.3394 15.6834 30.3394 15.6834L30.3128 22.0899H36.4811C36.4811 22.0899 37.5583 23.4728 37.6472 25.1438C37.736 26.8165 36.6304 28.715 36.6304 28.715ZM66.5866 35.8894C63.7265 35.8894 61.4209 33.5768 61.4209 30.7202C61.4209 27.8582 63.7265 25.5509 66.5866 25.5509C69.4344 25.5509 71.7577 27.8582 71.7577 30.7202C71.7577 33.5785 69.4344 35.8894 66.5866 35.8894ZM66.5866 21.6668C63.7265 21.6668 61.4209 19.3559 61.4209 16.4993C61.4209 13.6373 63.7265 11.33 66.5866 11.33C69.4344 11.33 71.7577 13.6373 71.7577 16.4993C71.7577 19.3577 69.4344 21.6668 66.5866 21.6668ZM79.4601 29.3016C76.5999 29.3016 74.2943 26.9907 74.2943 24.1323C74.2943 21.2722 76.5999 18.9631 79.4601 18.9631C82.3078 18.9631 84.6311 21.2722 84.6311 24.1323C84.6311 26.9907 82.3078 29.3016 79.4601 29.3016Z" fill="#C5C5C5"/>
</svg>
