<svg width="97" height="64" viewBox="0 0 97 64" fill="none" xmlns="http://www.w3.org/2000/svg">
<path d="M87.5512 11.8775C74.9604 -8.80852 55.9933 5.58299 55.9933 5.58299C54.7632 6.51268 52.495 7.27706 50.9538 7.28061L45.8734 7.28417C44.3322 7.28594 42.064 6.52157 40.8357 5.59188C40.8357 5.59188 21.8668 -8.80319 9.27423 11.8828C-3.31479 32.5618 1.7585 55.0823 1.7585 55.0823C2.64731 60.5964 5.57681 64.2761 11.1052 63.8139C16.6175 63.3535 28.5826 48.9637 28.5826 48.9637C29.571 47.7781 31.6419 46.8093 33.1795 46.8093L63.6371 46.8039C65.1765 46.8039 67.2456 47.7727 68.2322 48.9584C68.2322 48.9584 80.199 63.3481 85.7203 63.8085C91.2416 64.2707 94.1782 60.5875 95.0616 55.0769C95.0599 55.0769 100.142 32.56 87.5512 11.8775ZM36.9658 28.715H30.4349V35.0095C30.4349 35.0095 29.0519 36.0654 26.9117 36.0388C24.775 36.0068 23.808 34.8869 23.808 34.8869V28.7168H17.6397C17.6397 28.7168 16.87 27.9275 16.6638 25.8495C16.4611 23.7715 17.5152 22.0916 17.5152 22.0916H24.0479V15.5607C24.0479 15.5607 25.3918 14.8408 27.3241 14.8959C29.2581 14.9563 30.6749 15.6834 30.6749 15.6834L30.6482 22.0899H36.8165C36.8165 22.0899 37.8937 23.4728 37.9826 25.1438C38.0715 26.8165 36.9658 28.715 36.9658 28.715ZM66.9221 35.8894C64.0619 35.8894 61.7564 33.5768 61.7564 30.7202C61.7564 27.8582 64.0619 25.5509 66.9221 25.5509C69.7698 25.5509 72.0931 27.8582 72.0931 30.7202C72.0931 33.5785 69.7698 35.8894 66.9221 35.8894ZM66.9221 21.6668C64.0619 21.6668 61.7564 19.3559 61.7564 16.4993C61.7564 13.6373 64.0619 11.33 66.9221 11.33C69.7698 11.33 72.0931 13.6373 72.0931 16.4993C72.0931 19.3577 69.7698 21.6668 66.9221 21.6668ZM79.7955 29.3016C76.9354 29.3016 74.6298 26.9907 74.6298 24.1323C74.6298 21.2722 76.9354 18.9631 79.7955 18.9631C82.6433 18.9631 84.9666 21.2722 84.9666 24.1323C84.9666 26.9907 82.6433 29.3016 79.7955 29.3016Z" fill="#A3D8C1"/>
</svg>
