<svg width="80" height="70" viewBox="0 0 80 70" fill="none" xmlns="http://www.w3.org/2000/svg">
<path d="M58.3585 0H58.221C48.123 0 42.4773 7.38995 39.861 12.393C37.1987 7.3898 31.599 0 21.501 0H21.3176C10.3932 0.0919155 1.28847 9.40949 0.737737 21.2059C0.0490585 35.6643 11.5867 45.3951 28.8449 60.0832C31.8286 62.6537 34.9958 65.3619 38.3463 68.2536L39.8612 69.5847L41.376 68.2536C44.6807 65.3619 47.8938 62.6537 50.8774 60.0832C68.1355 45.3951 79.6722 35.6643 78.9836 21.2059C78.4324 9.40934 69.2829 0.0917626 58.3585 0Z" fill="#F38F8F"/>
<path d="M78.9828 21.2059C79.6715 35.6643 68.1349 45.3951 50.8766 60.0832C47.893 62.6537 44.6799 65.3619 41.3752 68.2536L39.8604 69.5847V12.393C42.4767 7.3898 48.1224 0 58.2204 0H58.3579C69.2824 0.0917626 78.4319 9.40934 78.9828 21.2059Z" fill="#F08080"/>
</svg>
