<svg width="79" height="70" viewBox="0 0 79 70" fill="none" xmlns="http://www.w3.org/2000/svg">
<path d="M58.0236 0H57.8861C47.7881 0 42.1424 7.38995 39.5261 12.393C36.8637 7.3898 31.2641 0 21.1661 0H20.9827C10.0582 0.0919155 0.953504 9.40949 0.402776 21.2059C-0.285902 35.6643 11.2517 45.3951 28.51 60.0833C31.4936 62.6537 34.6608 65.3619 38.0114 68.2536L39.5262 69.5847L41.0411 68.2536C44.3457 65.3619 47.5588 62.6537 50.5425 60.0833C67.8006 45.3951 79.3373 35.6643 78.6486 21.2059C78.0974 9.40934 68.9479 0.0917626 58.0236 0Z" fill="#ADADAD"/>
<path d="M78.6483 21.2059C79.337 35.6643 67.8004 45.3951 50.5421 60.0833C47.5585 62.6537 44.3454 65.3619 41.0407 68.2536L39.5259 69.5847V12.393C42.1422 7.3898 47.7879 0 57.8859 0H58.0234C68.9479 0.0917626 78.0974 9.40934 78.6483 21.2059Z" fill="#A3A3A3"/>
</svg>
