<svg width="70" height="92" viewBox="0 0 70 92" fill="none" xmlns="http://www.w3.org/2000/svg">
<path d="M29.5829 24.1138C27.8722 26.3082 25.2103 28.8795 25.996 33.6485L28.1098 46.4694L29.3632 45.7519C31.6806 44.4207 34.5001 44.5378 36.6975 46.0564L37.8854 46.8753C38.8517 47.5426 39.7789 47.7884 39.7789 47.7884C41.8471 40.9841 44.4503 34.2975 47.5461 27.9631C46.3666 24.4249 43.587 23.1416 41.5835 21.8635C41.5719 21.8558 41.5602 21.8481 41.5501 21.8423C40.2841 21.0057 40.2813 19.133 41.3077 17.9825C41.7121 17.5289 41.9168 16.8904 41.8103 16.2372L41.6445 15.2354C41.4624 14.1321 40.4546 13.3909 39.4062 13.5871L28.9105 15.5412C27.8604 15.7373 27.1513 16.8001 27.3335 17.9016L27.4993 18.9034C27.6087 19.5711 28.0219 20.102 28.5624 20.3749C29.8029 21.0013 30.5129 22.5177 29.8131 23.7701C29.7465 23.8881 29.6698 24.002 29.5829 24.1138Z" fill="#E4E4E4"/>
<path d="M40.7287 18.816L28.8477 21.0316C27.5368 21.2763 26.2763 20.3481 26.049 18.9707L25.9134 18.1505C25.6861 16.7731 26.5742 15.4438 27.8851 15.1991L39.7661 12.9835C41.077 12.7387 42.3375 13.667 42.5648 15.0443L42.7004 15.8646C42.9276 17.2438 42.0396 18.5712 40.7287 18.816Z" fill="#B1B1B1"/>
<path d="M43.4249 45.9643L44.5994 45.2246C46.7737 43.8526 49.4883 43.8526 51.661 45.2246L52.8355 45.9643C55.0098 47.3363 57.7244 47.3363 59.8971 45.9643L63.2162 44.4122C63.7038 42.9813 64.0431 41.9454 64.1782 41.4863C67.275 31.0111 69.2697 19.9816 69.5415 8.97975C69.6502 4.55547 66.1713 -2.34427 60.3912 0.791185C54.71 3.87121 50.4208 15.6763 47.5613 21.2854C43.6804 28.8979 40.3321 46.9721 38.2197 46.7646C39.9625 47.2271 41.837 46.9656 43.4249 45.9643Z" fill="#D9D9D9"/>
<path d="M9.59725 31.2233C9.04544 31.2233 8.50515 30.9305 8.19382 30.3987C7.18243 28.6751 4.23394 24.8228 3.02322 26.2606C2.10078 26.2086 1.45342 26.0299 1.42706 25.0754C1.39906 24.1174 2.11395 23.3188 3.02322 23.2894C6.4939 23.1802 7.8146 27.0562 10.9974 28.5815C11.4751 29.3957 11.2346 30.4628 10.4604 30.9652C10.1919 31.1401 9.8921 31.2233 9.59725 31.2233Z" fill="#B1B1B1"/>
<path d="M2.74124 40.9128L4.95675 42.3108C7.5017 43.9166 10.6808 43.9166 13.2258 42.3108L13.7957 41.9505C15.97 40.5785 18.6846 40.5785 20.8573 41.9505L22.0318 42.6901C23.3084 43.4957 25.5259 43.1912 26.9557 43.0509C29.5895 40.9838 28.6958 36.299 25.2156 31.2351C19.7205 21.0405 15.2008 24.4698 10.8027 28.8959C9.95934 29.7447 8.92819 30.3666 7.80478 30.7044C2.98174 32.1543 -0.577896 34.5258 1.44653 40.9838C1.80398 40.7101 2.30144 40.6356 2.74124 40.9128Z" fill="#A3A3A3"/>
<path d="M47.6065 42.1928C47.4319 42.1928 47.2523 42.1634 47.0777 42.101C46.2162 41.7927 45.755 40.8087 46.0482 39.9027C47.1469 36.504 50.6753 34.685 53.9021 35.8284C55.4159 36.3706 57.0648 35.5148 57.5787 33.9228C57.8703 33.0168 58.8026 32.5283 59.669 32.8384C60.5305 33.1468 60.9918 34.1307 60.6986 35.0367C59.6015 38.4372 56.0765 40.263 52.8446 39.1111C51.3325 38.5706 49.6836 39.4281 49.168 41.0166C48.9325 41.7407 48.2917 42.1928 47.6065 42.1928Z" fill="#BFBFBF"/>
<path d="M51.503 30.1234C51.3284 30.1234 51.1488 30.094 50.9742 30.0316C50.1127 29.7233 49.6515 28.7393 49.9447 27.8333C50.4768 26.1859 51.587 24.8538 53.0695 24.0847C54.552 23.3155 56.2305 23.1994 57.7986 23.759C59.3157 24.3029 60.9613 23.4454 61.4752 21.8517C61.7668 20.944 62.7024 20.4572 63.5639 20.7673C64.4254 21.0757 64.8866 22.0596 64.5934 22.9656C63.4963 26.3678 59.9713 28.1902 56.7395 27.0417C56.0065 26.7784 55.2191 26.8321 54.5256 27.1924C53.8321 27.5527 53.3133 28.1746 53.0629 28.9472C52.8306 29.6696 52.1899 30.1234 51.503 30.1234Z" fill="#BFBFBF"/>
<path d="M55.3992 18.052C55.2245 18.052 55.045 18.0225 54.8687 17.9602C54.0073 17.6518 53.546 16.6679 53.8392 15.7619C54.8012 12.7789 57.8963 11.1782 60.7328 12.1864C61.2764 12.3805 61.8562 12.3423 62.3685 12.0773C62.8808 11.8123 63.2646 11.3515 63.4491 10.7815C63.7406 9.87555 64.6746 9.38877 65.5394 9.69712C66.4009 10.0055 66.8621 10.9894 66.5689 11.8954C66.1011 13.3419 65.1276 14.5112 63.8263 15.185C62.5234 15.8606 61.0491 15.9594 59.6737 15.4691C58.5569 15.069 57.3379 15.7013 56.9591 16.8775C56.7252 17.5981 56.0844 18.052 55.3992 18.052Z" fill="#BFBFBF"/>
<path d="M64.9376 39.8779L60.5403 83.5231C60.3398 87.914 58.7714 91.6898 54.8517 91.6898H13.0559C9.13621 91.6898 7.40485 88.246 7.20432 83.8552L5.96953 62.642L0.855059 41.3205C0.809627 40.3207 1.77623 39.6688 2.54231 40.1837L4.64941 41.6016C7.06984 43.2304 10.0934 43.2304 12.5138 41.6016L13.0559 41.2361C15.1238 39.8445 17.7056 39.8445 19.772 41.2361L20.889 41.9881C22.9569 43.3797 25.5387 43.3797 27.6051 41.9881L28.7221 41.2361C30.79 39.8445 33.3718 39.8445 35.4382 41.2361L36.5552 41.9881C38.6231 43.3797 41.2049 43.3797 43.2713 41.9881L44.3883 41.2361C46.4562 39.8445 49.038 39.8445 51.1044 41.2361L52.2214 41.9881C54.2893 43.3797 56.8711 43.3797 58.9374 41.9881L64.2436 39.3438C64.5804 39.1751 64.9564 39.465 64.9376 39.8779Z" fill="#CACACA"/>
<path d="M27.9521 66.1072H16.4216C15.5124 66.1072 14.7744 65.3328 14.7744 64.3749C14.7744 63.4169 15.5124 62.6426 16.4216 62.6426H27.9521C28.8614 62.6426 29.5994 63.4169 29.5994 64.3749C29.5994 65.3328 28.8614 66.1072 27.9521 66.1072Z" fill="#B1B1B1"/>
<path d="M31.2466 73.0369H16.4216C15.5124 73.0369 14.7744 72.2625 14.7744 71.3046C14.7744 70.3466 15.5124 69.5723 16.4216 69.5723H31.2466C32.1558 69.5723 32.8938 70.3466 32.8938 71.3046C32.8938 72.2625 32.1558 73.0369 31.2466 73.0369Z" fill="#B1B1B1"/>
<path d="M34.541 79.9665H16.4216C15.5124 79.9665 14.7744 79.1922 14.7744 78.2343C14.7744 77.2763 15.5124 76.502 16.4216 76.502H34.541C35.4503 76.502 36.1882 77.2763 36.1882 78.2343C36.1882 79.1922 35.4503 79.9665 34.541 79.9665Z" fill="#B1B1B1"/>
<path d="M44.4241 79.9665H41.1296C40.2204 79.9665 39.4824 79.1922 39.4824 78.2343C39.4824 77.2763 40.2204 76.502 41.1296 76.502H44.4241C45.3333 76.502 46.0713 77.2763 46.0713 78.2343C46.0713 79.1922 45.3333 79.9665 44.4241 79.9665Z" fill="#B1B1B1"/>
</svg>
