<svg width="70" height="92" viewBox="0 0 70 92" fill="none" xmlns="http://www.w3.org/2000/svg">
<path d="M29.4378 24.1147C27.7272 26.3092 25.0653 28.8805 25.851 33.6495L27.9648 46.4704L29.2182 45.7529C31.5356 44.4217 34.355 44.5387 36.5525 46.0574L37.7404 46.8763C38.7067 47.5436 39.6339 47.7893 39.6339 47.7893C41.7021 40.9851 44.3053 34.2985 47.4011 27.964C46.2216 24.4258 43.442 23.1426 41.4385 21.8645C41.4268 21.8568 41.4152 21.8491 41.4051 21.8433C40.1391 21.0067 40.1363 19.134 41.1626 17.9835C41.5671 17.5299 41.7718 16.8914 41.6652 16.2381L41.4995 15.2364C41.3173 14.133 40.3096 13.3919 39.2612 13.5881L28.7655 15.5422C27.7154 15.7383 27.0063 16.801 27.1885 17.9026L27.3543 18.9043C27.4637 19.5721 27.8769 20.1029 28.4174 20.3759C29.6579 21.0023 30.3678 22.5187 29.668 23.771C29.6015 23.889 29.5247 24.003 29.4378 24.1147Z" fill="#DAE7EF"/>
<path d="M40.5842 18.816L28.7032 21.0316C27.3923 21.2763 26.1318 20.3481 25.9045 18.9707L25.7689 18.1505C25.5416 16.7731 26.4296 15.4438 27.7405 15.1991L39.6215 12.9835C40.9324 12.7387 42.1929 13.667 42.4202 15.0443L42.5559 15.8646C42.7831 17.2438 41.8951 18.5712 40.5842 18.816Z" fill="#8DC4AC"/>
<path d="M43.2799 45.9643L44.4544 45.2246C46.6287 43.8526 49.3433 43.8526 51.516 45.2246L52.6904 45.9643C54.8648 47.3363 57.5794 47.3363 59.7521 45.9643L63.0712 44.4122C63.5588 42.9813 63.8981 41.9454 64.0332 41.4863C67.1299 31.0111 69.1247 19.9816 69.3965 8.97975C69.5052 4.55547 66.0263 -2.34427 60.2462 0.791185C54.565 3.87121 50.2758 15.6763 47.4162 21.2854C43.5354 28.8979 40.187 46.9721 38.0747 46.7646C39.8175 47.2271 41.692 46.9656 43.2799 45.9643Z" fill="#F2DA94"/>
<path d="M9.45223 31.2243C8.90042 31.2243 8.36013 30.9315 8.04881 30.3997C7.03742 28.6761 4.08892 24.8238 2.8782 26.2616C1.95576 26.2096 1.3084 26.0308 1.28205 25.0763C1.25404 24.1184 1.96893 23.3198 2.8782 23.2903C6.34888 23.1812 7.66958 27.0572 10.8524 28.5825C11.3301 29.3967 11.0896 30.4638 10.3154 30.9662C10.0469 31.1411 9.74708 31.2243 9.45223 31.2243Z" fill="#8DC4AC"/>
<path d="M2.59622 40.9138L4.81173 42.3117C7.35668 43.9176 10.5358 43.9176 13.0808 42.3117L13.6507 41.9514C15.825 40.5794 18.5396 40.5794 20.7123 41.9514L21.8868 42.6911C23.1634 43.4966 25.3809 43.1922 26.8107 43.0519C29.4445 40.9848 28.5508 36.2999 25.0706 31.236C19.5755 21.0415 15.0558 24.4708 10.6577 28.8968C9.81432 29.7457 8.78317 30.3676 7.65977 30.7054C2.83672 32.1553 -0.722916 34.5268 1.30151 40.9848C1.65896 40.7111 2.15642 40.6366 2.59622 40.9138Z" fill="#C4F56E"/>
<path d="M47.4615 42.1938C47.2869 42.1938 47.1073 42.1644 46.9327 42.102C46.0712 41.7936 45.61 40.8097 45.9032 39.9037C47.0019 36.5049 50.5302 34.686 53.7571 35.8293C55.2709 36.3716 56.9198 35.5158 57.4337 33.9238C57.7253 33.0178 58.6576 32.5293 59.524 32.8394C60.3855 33.1477 60.8467 34.1317 60.5535 35.0377C59.4565 38.4382 55.9314 40.264 52.6996 39.112C51.1875 38.5716 49.5386 39.4291 49.023 41.0176C48.7875 41.7417 48.1467 42.1938 47.4615 42.1938Z" fill="#D8C071"/>
<path d="M51.3579 30.1234C51.1833 30.1234 51.0038 30.094 50.8292 30.0316C49.9677 29.7233 49.5065 28.7393 49.7997 27.8333C50.3317 26.1859 51.442 24.8538 52.9245 24.0847C54.4069 23.3155 56.0855 23.1994 57.6536 23.759C59.1707 24.3029 60.8163 23.4454 61.3302 21.8517C61.6218 20.944 62.5574 20.4572 63.4189 20.7673C64.2804 21.0757 64.7416 22.0596 64.4484 22.9656C63.3513 26.3678 59.8263 28.1902 56.5944 27.0417C55.8614 26.7784 55.0741 26.8321 54.3806 27.1924C53.6871 27.5527 53.1682 28.1746 52.9179 28.9472C52.6856 29.6696 52.0448 30.1234 51.3579 30.1234Z" fill="#D8C071"/>
<path d="M55.2546 18.052C55.08 18.052 54.9005 18.0225 54.7242 17.9602C53.8627 17.6518 53.4015 16.6679 53.6947 15.7619C54.6567 12.7789 57.7518 11.1782 60.5883 12.1864C61.1319 12.3805 61.7117 12.3423 62.224 12.0773C62.7363 11.8123 63.1201 11.3515 63.3046 10.7815C63.5961 9.87555 64.5301 9.38877 65.3949 9.69712C66.2564 10.0055 66.7176 10.9894 66.4244 11.8954C65.9566 13.3419 64.9831 14.5112 63.6818 15.185C62.3788 15.8606 60.9046 15.9594 59.5291 15.4691C58.4123 15.069 57.1934 15.7013 56.8145 16.8775C56.5806 17.5981 55.9399 18.052 55.2546 18.052Z" fill="#D8C071"/>
<path d="M64.7926 39.8779L60.3953 83.5231C60.1948 87.914 58.6264 91.6898 54.7067 91.6898H12.9109C8.99119 91.6898 7.25983 88.246 7.0593 83.8552L5.82451 62.642L0.71004 41.3205C0.664608 40.3207 1.63121 39.6688 2.39729 40.1837L4.50439 41.6016C6.92482 43.2304 9.94839 43.2304 12.3688 41.6016L12.9109 41.2361C14.9788 39.8445 17.5606 39.8445 19.627 41.2361L20.744 41.9881C22.8119 43.3797 25.3937 43.3797 27.4601 41.9881L28.5771 41.2361C30.645 39.8445 33.2268 39.8445 35.2931 41.2361L36.4101 41.9881C38.4781 43.3797 41.0599 43.3797 43.1262 41.9881L44.2432 41.2361C46.3112 39.8445 48.893 39.8445 50.9593 41.2361L52.0763 41.9881C54.1443 43.3797 56.7261 43.3797 58.7924 41.9881L64.0986 39.3438C64.4354 39.1751 64.8114 39.465 64.7926 39.8779Z" fill="#ACDEB1"/>
<path d="M27.8071 66.1081H16.2766C15.3673 66.1081 14.6294 65.3338 14.6294 64.3759C14.6294 63.4179 15.3673 62.6436 16.2766 62.6436H27.8071C28.7164 62.6436 29.4543 63.4179 29.4543 64.3759C29.4543 65.3338 28.7164 66.1081 27.8071 66.1081Z" fill="#8DC5AC"/>
<path d="M31.1015 73.0378H16.2766C15.3673 73.0378 14.6294 72.2635 14.6294 71.3055C14.6294 70.3476 15.3673 69.5732 16.2766 69.5732H31.1015C32.0108 69.5732 32.7488 70.3476 32.7488 71.3055C32.7488 72.2635 32.0108 73.0378 31.1015 73.0378Z" fill="#8DC5AC"/>
<path d="M34.396 79.9675H16.2766C15.3673 79.9675 14.6294 79.1932 14.6294 78.2352C14.6294 77.2773 15.3673 76.5029 16.2766 76.5029H34.396C35.3052 76.5029 36.0432 77.2773 36.0432 78.2352C36.0432 79.1932 35.3052 79.9675 34.396 79.9675Z" fill="#8DC5AC"/>
<path d="M44.279 79.9675H40.9846C40.0754 79.9675 39.3374 79.1932 39.3374 78.2352C39.3374 77.2773 40.0754 76.5029 40.9846 76.5029H44.279C45.1883 76.5029 45.9263 77.2773 45.9263 78.2352C45.9263 79.1932 45.1883 79.9675 44.279 79.9675Z" fill="#8DC5AC"/>
</svg>
