<svg width="84" height="66" viewBox="0 0 84 66" fill="none" xmlns="http://www.w3.org/2000/svg">
<path d="M41.6615 20.082C31.3573 20.082 21.5244 23.1439 13.1321 28.9513C12.4963 29.3912 12.3717 30.2867 12.8459 30.8973L16.4806 35.5773C16.9213 36.1448 17.7208 36.2566 18.3154 35.8536C25.222 31.1734 33.259 28.71 41.6613 28.71C50.0648 28.71 58.1029 31.1729 64.9904 35.8471C65.5849 36.2506 66.3842 36.1394 66.8254 35.5723L70.4625 30.8978C70.9373 30.2875 70.8135 29.3919 70.178 28.9515C61.7976 23.1434 51.9652 20.082 41.6615 20.082Z" fill="#71D47B"/>
<path d="M45.9282 59.763C44.5809 59.2379 43.1285 58.9629 41.6624 58.9629C40.1917 58.9629 38.7351 59.2396 37.3724 59.7715C36.5375 60.0974 36.2724 61.1593 36.8238 61.8659L40.5905 66.6933C41.1341 67.3899 42.1882 67.3883 42.7296 66.6897L46.478 61.8531C47.0255 61.1466 46.7611 60.0877 45.9282 59.763Z" fill="#71D47B"/>
<path d="M41.6672 0.0644531C56.0323 0.0644531 70.3974 4.38694 82.5285 13.0321C83.1545 13.4781 83.2764 14.367 82.8056 14.9745L79.1801 19.6523C78.7356 20.2258 77.9241 20.3359 77.3316 19.9167C66.8618 12.5098 54.561 8.60553 41.6604 8.60553C28.7596 8.60553 16.4587 12.5098 5.98882 19.9167C5.39631 20.3359 4.58483 20.2258 4.14025 19.6523L0.514819 14.9745C0.0440191 14.367 0.165886 13.4783 0.791893 13.0321C12.923 4.38694 27.2881 0.0644531 41.6532 0.0644531" fill="#71D47B"/>
<path d="M41.6608 40.2119C35.8963 40.2119 30.3462 41.831 25.539 44.901C24.8784 45.3229 24.7432 46.2359 25.2221 46.8564L28.8544 51.5627C29.2815 52.1162 30.0483 52.2345 30.6481 51.8756C33.9728 49.8861 37.7547 48.8401 41.6611 48.8401C45.5672 48.8401 49.3493 49.8861 52.6739 51.8756C53.2738 52.2345 54.0405 52.1162 54.4676 51.5627L58.0998 46.8564C58.5787 46.2359 58.4436 45.3229 57.7829 44.901C52.9757 41.8311 47.4256 40.2119 41.6608 40.2119Z" fill="#71D47B"/>
<path d="M41.6605 3.40234C26.7236 3.40234 12.9576 8.39454 1.9209 16.7901L4.14073 19.6544C4.58531 20.228 5.39679 20.338 5.98929 19.9187C16.459 12.5118 28.7599 8.60752 41.6608 8.60752C54.5615 8.60752 66.8623 12.5118 77.332 19.9187C77.9245 20.338 78.736 20.228 79.1806 19.6544L81.4003 16.7903C70.3637 8.3947 56.5976 3.40234 41.6605 3.40234Z" fill="#50C692"/>
<path d="M41.6608 23.7266C31.4127 23.7266 21.9605 27.1259 14.3633 32.8547L16.48 35.5802C16.9207 36.1477 17.7202 36.2597 18.3148 35.8565C25.2215 31.1765 33.2584 28.7131 41.6609 28.7131C50.0644 28.7131 58.1025 31.176 64.99 35.8502C65.5845 36.2535 66.3838 36.1425 66.825 35.5756L68.9481 32.8469C61.3528 27.1227 51.9043 23.7266 41.6608 23.7266Z" fill="#50C692"/>
<path d="M41.6605 44.0469C36.1022 44.0469 30.9841 45.8785 26.8276 48.94L28.8539 51.5655C29.281 52.119 30.0478 52.2373 30.6476 51.8783C33.9723 49.8888 37.7544 48.8428 41.6607 48.8428C45.5667 48.8428 49.3488 49.8886 52.6734 51.8783C53.2732 52.2373 54.04 52.119 54.4671 51.5655L56.4934 48.94C52.3373 45.8783 47.2188 44.0469 41.6605 44.0469Z" fill="#50C692"/>
</svg>
