<svg width="84" height="66" viewBox="0 0 84 66" fill="none" xmlns="http://www.w3.org/2000/svg">
<path d="M41.8065 20.082C31.5023 20.082 21.6694 23.1439 13.2771 28.9513C12.6414 29.3912 12.5167 30.2867 12.9909 30.8973L16.6256 35.5773C17.0663 36.1448 17.8658 36.2566 18.4604 35.8536C25.367 31.1734 33.404 28.71 41.8064 28.71C50.2099 28.71 58.2479 31.1729 65.1355 35.8471C65.7299 36.2506 66.5292 36.1394 66.9704 35.5723L70.6075 30.8978C71.0824 30.2875 70.9586 29.3919 70.323 28.9515C61.9426 23.1434 52.1102 20.082 41.8065 20.082Z" fill="#8E8E8E"/>
<path d="M46.0732 59.763C44.7259 59.2379 43.2735 58.9629 41.8074 58.9629C40.3367 58.9629 38.8801 59.2396 37.5174 59.7715C36.6825 60.0974 36.4174 61.1593 36.9688 61.8659L40.7355 66.6933C41.2791 67.3899 42.3332 67.3883 42.8746 66.6897L46.623 61.8531C47.1705 61.1466 46.9061 60.0877 46.0732 59.763Z" fill="#8E8E8E"/>
<path d="M41.8117 0.0644531C56.1768 0.0644531 70.542 4.38694 82.673 13.0321C83.299 13.4781 83.4209 14.367 82.9501 14.9745L79.3247 19.6523C78.8801 20.2258 78.0686 20.3359 77.4761 19.9167C67.0064 12.5098 54.7055 8.60553 41.8049 8.60553C28.9041 8.60553 16.6033 12.5098 6.13335 19.9167C5.54084 20.3359 4.72937 20.2258 4.28478 19.6523L0.65935 14.9745C0.18855 14.367 0.310418 13.4783 0.936424 13.0321C13.0675 4.38694 27.4326 0.0644531 41.7978 0.0644531" fill="#8E8E8E"/>
<path d="M41.8053 40.2119C36.0408 40.2119 30.4908 41.831 25.6835 44.901C25.0229 45.3229 24.8878 46.2359 25.3667 46.8564L28.9989 51.5627C29.426 52.1162 30.1928 52.2345 30.7926 51.8756C34.1173 49.8861 37.8993 48.8401 41.8057 48.8401C45.7117 48.8401 49.4938 49.8861 52.8184 51.8756C53.4183 52.2345 54.185 52.1162 54.6121 51.5627L58.2443 46.8564C58.7232 46.2359 58.5881 45.3229 57.9274 44.901C53.1202 41.8311 47.5702 40.2119 41.8053 40.2119Z" fill="#8E8E8E"/>
<path d="M41.8055 3.40234C26.8686 3.40234 13.1026 8.39454 2.06592 16.7901L4.28575 19.6544C4.73033 20.228 5.54181 20.338 6.13431 19.9187C16.6041 12.5118 28.9049 8.60752 41.8058 8.60752C54.7065 8.60752 67.0073 12.5118 77.4771 19.9187C78.0696 20.338 78.881 20.228 79.3256 19.6544L81.5453 16.7903C70.5088 8.3947 56.7426 3.40234 41.8055 3.40234Z" fill="#A3A3A3"/>
<path d="M41.8058 23.7266C31.5578 23.7266 22.1055 27.1259 14.5083 32.8547L16.625 35.5802C17.0657 36.1477 17.8652 36.2597 18.4598 35.8565C25.3665 31.1765 33.4034 28.7131 41.806 28.7131C50.2095 28.7131 58.2475 31.176 65.1351 35.8502C65.7295 36.2535 66.5289 36.1425 66.97 35.5756L69.0931 32.8469C61.4978 27.1227 52.0493 23.7266 41.8058 23.7266Z" fill="#A3A3A3"/>
<path d="M41.8055 44.0469C36.2472 44.0469 31.1291 45.8785 26.9727 48.94L28.9989 51.5655C29.426 52.119 30.1928 52.2373 30.7926 51.8783C34.1174 49.8888 37.8995 48.8428 41.8057 48.8428C45.7118 48.8428 49.4939 49.8886 52.8184 51.8783C53.4182 52.2373 54.185 52.119 54.6121 51.5655L56.6384 48.94C52.4823 45.8783 47.3638 44.0469 41.8055 44.0469Z" fill="#A3A3A3"/>
</svg>
